<svg id="Layer_1" xmlns="http://www.w3.org/2000/svg" xmlns:xlink="http://www.w3.org/1999/xlink" viewBox="0 0 608.3 420.4"><style>.st0{fill:url(#SVGID_1_);stroke-miterlimit:10}.st0,.st1,.st2{stroke:#fff;stroke-width:1.9429}.st1{stroke-miterlimit:10;fill:url(#SVGID_2_)}.st2{fill:url(#SVGID_3_)}.st3{fill:#fff}.st4{font-family:&apos;OpenSans-Light&apos;}.st5{font-size:15.5434px}.st6,.st7{fill:none;stroke:#fff;stroke-width:.4857}.st7{stroke:url(#SVGID_4_);stroke-width:3;stroke-miterlimit:10}.st8{fill:#58595b}.st9{font-size:14.572px}.st10{fill:#7c7d7d}.st11{font-family:&apos;OpenSans&apos;}.st12{font-size:16px}.st13{fill:#9cc93e}.st14{fill:#fff;stroke:#9cc93e;stroke-width:1.3867;stroke-miterlimit:10}.st15,.st16,.st17{fill:none;stroke:#fff;stroke-miterlimit:10}.st15{clip-path:url(#SVGID_7_);stroke-width:.6172}.st16,.st17{stroke-width:1.7019}.st17{stroke-width:1.5062}.st18{stroke-dasharray:6,6}.st18,.st19{fill:none;stroke:#939598;stroke-width:3}.st20{fill:#939598}.st21{fill:url(#SVGID_8_);stroke-miterlimit:10}.st21,.st22,.st23{stroke:#fff;stroke-width:1.9429}.st22{stroke-miterlimit:10;fill:url(#SVGID_9_)}.st23{fill:url(#SVGID_10_)}.st24,.st25{fill:url(#SVGID_11_);stroke:url(#SVGID_12_);stroke-width:3;stroke-miterlimit:10}.st25{fill:none;stroke:url(#SVGID_13_);stroke-width:2.9144}</style><linearGradient id="SVGID_1_" gradientUnits="userSpaceOnUse" x1="505.615" y1="530.015" x2="643.924" y2="668.324" gradientTransform="translate(0 -370)"><stop offset="0" stop-color="#8077b7"/><stop offset=".691" stop-color="#77c5e3"/></linearGradient><path class="st0" d="M575.9 237.5h-63.6c-1.3 0-2.3-1-2.3-2.3v-73.4c0-1.3 1-2.3 2.3-2.3h63.6c1.3 0 2.3 1 2.3 2.3v73.4c0 1.3-1 2.3-2.3 2.3z"/><linearGradient id="SVGID_2_" gradientUnits="userSpaceOnUse" x1="505.324" y1="515.423" x2="643.632" y2="653.732" gradientTransform="translate(0 -370)"><stop offset="0" stop-color="#8077b7"/><stop offset=".691" stop-color="#77c5e3"/></linearGradient><path class="st1" d="M582.8 230.1h-63.6c-1.3 0-2.3-1-2.3-2.3v-73.4c0-1.3 1-2.3 2.3-2.3h63.6c1.3 0 2.3 1 2.3 2.3v73.4c0 1.3-1.1 2.3-2.3 2.3z"/><linearGradient id="SVGID_3_" gradientUnits="userSpaceOnUse" x1="505.428" y1="500.728" x2="643.737" y2="639.038" gradientTransform="translate(0 -370)"><stop offset="0" stop-color="#8077b7"/><stop offset=".691" stop-color="#77c5e3"/></linearGradient><path class="st2" d="M590.3 222.8h-63.6c-1.3 0-2.3-1-2.3-2.3v-73.4c0-1.3 1-2.3 2.3-2.3h63.6c1.3 0 2.3 1 2.3 2.3v73.4c0 1.3-1 2.3-2.3 2.3z"/><text transform="translate(538.86 189.387)" class="st3 st4 st5">AAAA</text><path class="st6" d="M533.6 168.4h49.8m-49.8 31h49.8"/><linearGradient id="SVGID_4_" gradientUnits="userSpaceOnUse" x1="252.435" y1="620.153" x2="379.908" y2="513.19" gradientTransform="translate(0 -370)"><stop offset="0" stop-color="#8077b7"/><stop offset="1" stop-color="#77c5e3"/></linearGradient><circle class="st7" cx="316.2" cy="196.7" r="81.7"/><path class="st8" d="M74.8 228.6H11.2c-1.3 0-2.3-1-2.3-2.3v-73.4c0-1.3 1-2.3 2.3-2.3h63.6c1.3 0 2.3 1 2.3 2.3v73.4c0 1.3-1 2.3-2.3 2.3z"/><text transform="translate(22.14 195.215)" class="st3 st4 st9">RRSIG</text><path class="st6" d="M18.1 174.2h49.8m-49.8 31h49.8"/><text transform="translate(501.695 267.79)" class="st10 st11 st12">Verified RRset</text><text transform="translate(20.401 115.442)" class="st10 st11 st12">RRset</text><text transform="translate(7.343 256.774)" class="st10 st11 st12">Signature</text><text transform="translate(269.432 237.29)" class="st10 st11 st12">DNS Resolver</text><path class="st3" d="M71.7 233.7c-6.3 0-11.4-5.1-11.4-11.4 0-6.3 5.1-11.4 11.4-11.4s11.4 5.1 11.4 11.4c0 6.3-5.1 11.4-11.4 11.4z"/><path class="st13" d="M65.8 222.8v17.1l5.8-4.6 6 5.1V223l-11.8-.2z"/><path class="st14" d="M71.7 231.7c-5.2 0-9.4-4.2-9.4-9.4s4.2-9.4 9.4-9.4 9.4 4.2 9.4 9.4-4.2 9.4-9.4 9.4z"/><path class="st13" d="M71.7 229.2c-3.8 0-6.8-3.1-6.8-6.8 0-3.8 3.1-6.8 6.8-6.8 3.8 0 6.8 3.1 6.8 6.8.1 3.7-3 6.8-6.8 6.8z"/><text transform="translate(6.332 416.096)" class="st10 st11 st12">Public ZSK</text><path class="st8" d="M74.8 389.2H11.2c-1.3 0-2.3-1-2.3-2.3v-73.4c0-1.3 1-2.3 2.3-2.3h63.6c1.3 0 2.3 1 2.3 2.3v73.4c0 1.3-1 2.3-2.3 2.3z"/><text transform="translate(16.716 355.83)" class="st3 st4 st9">DNSKEY</text><path class="st6" d="M18.1 334.8h49.8m-49.8 31h49.8"/><path class="st8" d="M66.1 381.7h21.6l4 3.7v1.5l-3.4 3.4h-1.2l-1.4-1.2H84l-.9 1.4H82l-1.1-.9h-1.4l-1.1 1.1h-.8l-1.2-1h-2l-1.9 2.2h-1l-.8-.7h-4.9c.1-.1.4-9.4.3-9.5z"/><path id="SVGID_5_" class="st13" d="M66.1 381.7h21.6l4 3.7v1.5l-3.4 3.4h-1.2l-1.4-1.2H84l-.9 1.4H82l-1.1-.9h-1.4l-1.1 1.1h-.8l-1.2-1h-2l-1.9 2.2h-1l-.8-.7h-4.9c.1-.1.4-9.4.3-9.5z"/><defs><path id="SVGID_6_" d="M66.1 381.7h21.6l4 3.7v1.5l-3.4 3.4h-1.2l-1.4-1.2H84l-.9 1.4H82l-1.1-.9h-1.4l-1.1 1.1h-.8l-1.2-1h-2l-1.9 2.2h-1l-.8-.7h-4.9c.1-.1.4-9.4.3-9.5z"/></defs><clipPath id="SVGID_7_"><use xlink:href="#SVGID_6_" overflow="visible"/></clipPath><path class="st15" d="M67.9 384h23.2"/><circle class="st13" cx="57.7" cy="386.3" r="9.6"/><circle class="st3" cx="53.2" cy="386.3" r="2.4"/><circle class="st3" cx="588.6" cy="225.9" r="19.7"/><path class="st16" d="M581 225.8l4.6 7.7 11.7-13.8"/><circle class="st13" cx="588.6" cy="225.9" r="17.5"/><path class="st17" d="M581.8 225.9l4.1 6.7 10.4-12.2"/><path class="st18" d="M96.5 62.6c7.3 59 54.5 104.4 111.7 104.4M96.5 328.2c7.3-59 54.5-104.4 111.7-104.4M96.8 195.4h104.9"/><path class="st19" d="M412.2 195.4h75.7"/><path class="st20" d="M203.3 166.2l-.1-8.6 7.4 4.2 7.5 4.2-7.4 4.4-7.4 4.3v-8.5zm0 29l-.1-8.5 7.4 4.2 7.5 4.2-7.4 4.3-7.4 4.3v-8.5zm0 28.8l-.1-8.5 7.4 4.2 7.5 4.2-7.4 4.3-7.4 4.4V224zm280.6-28.8l-.1-8.5 7.4 4.2 7.5 4.2-7.4 4.3-7.4 4.3v-8.5z"/><linearGradient id="SVGID_8_" gradientUnits="userSpaceOnUse" x1="-6.26" y1="459.343" x2="142.274" y2="334.709" gradientTransform="translate(0 -370)"><stop offset="0" stop-color="#8077b7"/><stop offset=".691" stop-color="#77c5e3"/></linearGradient><path class="st21" d="M66.8 93.8H3.3c-1.3 0-2.3-1-2.3-2.3V18c0-1.3 1-2.3 2.3-2.3h63.6c1.3 0 2.3 1 2.3 2.3v73.4c-.1 1.3-1.1 2.4-2.4 2.4z"/><linearGradient id="SVGID_9_" gradientUnits="userSpaceOnUse" x1="-7.066" y1="458.336" x2="141.333" y2="333.813" gradientTransform="translate(0 -370)"><stop offset="0" stop-color="#8077b7"/><stop offset=".691" stop-color="#77c5e3"/></linearGradient><path class="st22" d="M73.7 86.3H10.1c-1.3 0-2.3-1-2.3-2.3V10.6c0-1.3 1-2.3 2.3-2.3h63.6c1.3 0 2.3 1 2.3 2.3V84c0 1.3-1 2.3-2.3 2.3z"/><linearGradient id="SVGID_10_" gradientUnits="userSpaceOnUse" x1="-7.468" y1="457.732" x2="140.97" y2="333.177" gradientTransform="translate(0 -370)"><stop offset="0" stop-color="#8077b7"/><stop offset=".691" stop-color="#77c5e3"/></linearGradient><path class="st23" d="M81.3 79H17.7c-1.3 0-2.3-1-2.3-2.3V3.3c0-1.3 1-2.3 2.3-2.3h63.6c1.3 0 2.3 1 2.3 2.3v73.4c0 1.3-1.1 2.3-2.3 2.3z"/><text transform="translate(29.811 45.608)" class="st3 st4 st5">AAAA</text><path class="st6" d="M24.6 24.6h49.8m-49.8 31h49.8"/><linearGradient id="SVGID_11_" gradientUnits="userSpaceOnUse" x1="283.429" y1="581.339" x2="406.108" y2="478.399" gradientTransform="translate(0 -370)"><stop offset="0" stop-color="#8077b7"/><stop offset=".488" stop-color="#77c5e3"/></linearGradient><linearGradient id="SVGID_12_" gradientUnits="userSpaceOnUse" x1="280.83" y1="583.519" x2="354.88" y2="521.384" gradientTransform="translate(0 -370)"><stop offset="0" stop-color="#8077b7"/><stop offset=".864" stop-color="#77c5e3"/></linearGradient><path class="st24" d="M364.1 199.5h-92.4c-.8 0-1.4-.6-1.4-1.4v-31.2c0-.8.6-1.4 1.4-1.4h92.4c.8 0 1.4.6 1.4 1.4v31.2c0 .7-.7 1.4-1.4 1.4z"/><circle class="st3" cx="338.7" cy="182.8" r="3.1"/><circle class="st3" cx="348.6" cy="182.8" r="3.1"/><circle class="st3" cx="319" cy="182.8" r="3.1"/><circle class="st3" cx="328.9" cy="182.8" r="3.1"/><linearGradient id="SVGID_13_" gradientUnits="userSpaceOnUse" x1="297.65" y1="594.197" x2="337.993" y2="560.346" gradientTransform="translate(0 -370)"><stop offset="0" stop-color="#8077b7"/><stop offset="1" stop-color="#77c5e3"/></linearGradient><path class="st25" d="M284.7 207.3H351"/></svg>